HIERARCHY
ROOT Hips
{
    OFFSET 0.000000 0.000000 0.000000
    CHANNELS 6 Xposition Yposition Zposition Zrotation Xrotation Yrotation
    JOINT Spine
    {
        OFFSET -0.000000 8.349382 0.000000
        CHANNELS 3 Zrotation Xrotation Yrotation
        JOINT Spine1
        {
            OFFSET -0.000000 23.269058 0.000000
            CHANNELS 3 Zrotation Xrotation Yrotation
            JOINT Neck
            {
                OFFSET -0.000000 23.173496 2.106681
                CHANNELS 3 Zrotation Xrotation Yrotation
                JOINT Head
                {
                    OFFSET -0.000000 14.255042 -2.036435
                    CHANNELS 3 Zrotation Xrotation Yrotation
                    End Site
                    {
                        OFFSET -0.000000 25.455433 0.000000
                    }
                }
            }
            JOINT LeftShoulder
            {
                OFFSET 3.917082 21.531742 0.000256
                CHANNELS 3 Zrotation Xrotation Yrotation
                JOINT LeftArm
                {
                    OFFSET 10.728225 0.000000 0.000000
                    CHANNELS 3 Zrotation Xrotation Yrotation
                    JOINT LeftForeArm
                    {
                        OFFSET 30.046112 0.000000 0.000000
                        CHANNELS 3 Zrotation Xrotation Yrotation
                        JOINT LeftHand
                        {
                            OFFSET 29.023712 0.000000 0.000000
                            CHANNELS 3 Zrotation Xrotation Yrotation
                            End Site
                            {
                                OFFSET 15.273261 0.000000 0.000000
                            }
                        }
                    }
                }
            }
            JOINT RightShoulder
            {
                OFFSET -3.920664 21.531742 0.000256
                CHANNELS 3 Zrotation Xrotation Yrotation
                JOINT RightArm
                {
                    OFFSET -10.728225 0.000000 0.000000
                    CHANNELS 3 Zrotation Xrotation Yrotation
                    JOINT RightForeArm
                    {
                        OFFSET -30.046112 0.000000 0.000000
                        CHANNELS 3 Zrotation Xrotation Yrotation
                        JOINT RightHand
                        {
                            OFFSET -29.023712 0.000000 0.000000
                            CHANNELS 3 Zrotation Xrotation Yrotation
                            End Site
                            {
                                OFFSET -15.273261 0.000000 0.000000
                            }
                        }
                    }
                }
            }
        }
    }
    JOINT LeftUpLeg
    {
        OFFSET 10.182174 0.000000 0.000000
        CHANNELS 3 Zrotation Xrotation Yrotation
        JOINT LeftLeg
        {
            OFFSET -0.000000 -49.689274 0.000000
            CHANNELS 3 Zrotation Xrotation Yrotation
            JOINT LeftFoot
            {
                OFFSET -0.000000 -39.155319 0.000000
                CHANNELS 3 Zrotation Xrotation Yrotation
                JOINT LeftToeBase
                {
                    OFFSET -0.000000 -6.618412 15.273261
                    CHANNELS 3 Zrotation Xrotation Yrotation
                    End Site
                    {
                        OFFSET -0.000000 0.000000 4.072869
                    }
                }
            }
        }
    }
    JOINT RightUpLeg
    {
        OFFSET -10.182174 0.000000 0.000000
        CHANNELS 3 Zrotation Xrotation Yrotation
        JOINT RightLeg
        {
            OFFSET -0.000000 -49.689274 0.000000
            CHANNELS 3 Zrotation Xrotation Yrotation
            JOINT RightFoot
            {
                OFFSET -0.000000 -39.155319 0.000000
                CHANNELS 3 Zrotation Xrotation Yrotation
                JOINT RightToeBase
                {
                    OFFSET -0.000000 -6.618412 15.273261
                    CHANNELS 3 Zrotation Xrotation Yrotation
                    End Site
                    {
                        OFFSET -0.000000 0.000000 4.072869
                    }
                }
            }
        }
    }
}
MOTION
Frames:    11
Frame Time:    0.008333
0.563233    98.499542    27.409256    1.937690    1.174654    98.966049    -1.177424    -5.883872    0.880721    -1.719867    4.045454    1.002013    1.969455    1.380390    1.804785    2.309799    2.505453    1.890292    4.344119    3.948696    -23.372595    -28.054852    11.917773    -34.244514    6.668044    -25.946993    -67.804466    -7.871285    -22.418999    9.012836    -3.982533    5.390026    -9.282585    24.652582    23.116411    44.735641    -18.978960    -23.165503    52.448124    -12.186450    -14.812393    5.741489    2.303678    0.119501    -8.609296    -6.231195    1.516728    -8.783893    -7.433609    -10.518889    8.868892    0.000000    0.000000    0.000000    -3.978984    0.885091    1.034022    3.908988    8.421243    -1.238315    -3.182480    -15.154729    -7.390327    0.000000    0.000000    0.000000    
0.593134    98.500496    27.368853    1.882058    1.177923    98.914871    -1.314836    -5.928022    0.838086    -1.455104    4.016791    0.957218    1.964438    1.537630    1.854731    2.230476    2.346048    1.939123    4.206951    4.102731    -23.312651    -28.252573    11.820655    -34.029266    6.862837    -25.892057    -67.798347    -8.123821    -22.269537    9.158244    -3.941637    5.379354    -9.395130    24.415180    23.355843    44.773655    -18.979614    -23.110012    52.563267    -11.899767    -14.711558    5.693679    2.254863    0.047282    -8.668227    -6.232683    1.604179    -8.796437    -7.317761    -10.474819    8.989178    0.000000    0.000000    0.000000    -3.992442    0.807219    1.207040    3.898402    8.513457    -1.006545    -3.340636    -15.196361    -7.721416    0.000000    0.000000    0.000000    
0.625190    98.506073    27.332792    1.840054    1.167814    98.829285    -1.370124    -6.068230    0.803286    -1.257462    4.335474    0.923553    1.865467    1.171242    1.914229    2.238414    2.554935    2.005269    4.253296    3.996480    -22.980783    -28.540342    11.841641    -34.037830    7.096695    -25.817364    -67.779549    -8.375704    -22.072845    9.249152    -4.177205    5.249094    -9.588846    24.448206    23.624691    44.866848    -18.957506    -23.041790    52.804241    -11.835875    -14.605225    5.756314    2.226848    0.000983    -8.732143    -6.235197    1.670641    -8.790421    -7.215553    -10.424648    9.103751    0.000000    0.000000    0.000000    -3.983383    0.733049    1.401176    3.882345    8.595492    -0.895028    -3.338999    -15.201470    -7.884419    0.000000    0.000000    0.000000    
0.658426    98.510239    27.295914    1.788055    1.146902    98.712975    -1.416634    -6.139597    0.794502    -1.071669    4.414448    0.911801    1.962360    1.103261    1.998156    1.960964    2.620380    2.043358    4.166638    4.098041    -22.870565    -28.762783    11.816508    -33.847717    7.267106    -25.678713    -67.694588    -8.092313    -21.816442    9.358984    -4.230985    5.236570    -9.641651    24.421476    23.875587    44.791718    -18.918001    -22.917467    52.985317    -11.507452    -14.443781    5.781838    2.208593    -0.043819    -8.811357    -6.236542    1.720375    -8.776507    -7.135187    -10.401754    9.248303    0.000000    0.000000    0.000000    -3.959551    0.649427    1.591212    3.843941    8.651816    -0.943021    -3.433824    -15.243600    -7.864739    0.000000    0.000000    0.000000    
0.690292    98.514519    27.258087    1.717489    1.116818    98.557556    -1.369153    -6.268070    0.801504    -1.078497    4.623374    0.920043    2.047648    0.855511    2.050848    1.924773    2.809636    2.074341    4.320154    4.078171    -22.652441    -29.123249    11.899220    -33.734673    7.489964    -25.588156    -67.568024    -8.274570    -21.612892    9.423589    -4.251631    5.302021    -9.609982    24.552984    24.012058    44.606251    -18.870031    -22.759584    53.227245    -11.212130    -14.247135    5.875412    2.201763    -0.088300    -8.881024    -6.239606    1.725577    -8.766738    -7.033000    -10.345916    9.416559    0.000000    0.000000    0.000000    -3.917992    0.535900    1.758722    3.780146    8.730033    -0.961643    -3.557468    -15.317826    -7.862887    0.000000    0.000000    0.000000    
0.724482    98.517426    27.219215    1.672160    1.089880    98.382179    -1.418005    -6.337471    0.847003    -0.850180    4.730371    0.960617    1.980795    0.785083    2.070535    1.893731    2.868190    2.098414    4.215573    4.102298    -22.591831    -29.380592    12.132234    -33.517281    7.775613    -25.499960    -67.271156    -7.699172    -21.321295    9.353906    -4.304263    5.376009    -9.698956    24.562721    24.242857    44.474892    -18.735725    -22.592392    53.430550    -10.994833    -14.093895    5.948700    2.202109    -0.077543    -8.973731    -6.249137    1.672435    -8.656978    -6.960686    -10.277432    9.521507    0.000000    0.000000    0.000000    -3.819289    0.447066    1.674819    3.540973    8.850117    -1.139539    -3.433203    -15.450220    -7.427888    0.000000    0.000000    0.000000    
0.749897    98.520203    27.172405    1.685338    1.051158    98.226799    -1.494056    -6.093226    0.967621    -0.550025    4.343250    1.067997    1.938291    1.019358    1.999043    1.859173    2.830114    2.030600    3.964226    4.345991    -22.905371    -29.669542    12.073477    -33.014866    7.493781    -25.083452    -67.222809    -7.090396    -21.021868    9.293147    -4.147037    5.687967    -9.873920    24.414064    24.528742    44.224709    -18.575245    -22.479574    53.604305    -10.873407    -14.027324    6.077217    2.218981    -0.005477    -9.099370    -6.255385    1.591546    -8.505792    -6.912751    -10.215333    9.581448    0.000000    0.000000    0.000000    -3.771690    0.426360    1.665556    3.468855    8.913900    -1.080295    -3.486301    -15.525160    -7.383855    0.000000    0.000000    0.000000    
0.780334    98.516441    27.134491    1.648203    1.001907    98.000557    -1.361371    -6.123478    1.000538    -0.595780    4.406215    1.096276    1.930554    0.966196    2.092943    1.887518    2.925731    2.130316    3.919983    4.360911    -22.726778    -29.910452    12.372757    -32.694942    7.420717    -24.914761    -67.018280    -6.632592    -20.873959    9.244996    -4.029620    5.773119    -9.839317    24.399359    24.921812    44.066364    -18.074961    -22.451305    53.921520    -11.439208    -14.181720    5.701150    2.269470    0.039640    -9.199927    -6.305816    1.472654    -8.341656    -6.868936    -10.164751    9.633289    0.000000    0.000000    0.000000    -3.721917    0.343940    1.601795    3.390853    8.992539    -0.944444    -3.564425    -15.634741    -7.305603    0.000000    0.000000    0.000000    
0.808453    98.504364    27.093891    1.583646    0.948528    97.762978    -1.231542    -6.187787    1.054986    -0.618014    4.512061    1.145863    1.896069    0.861154    2.146344    1.947153    3.042356    2.194016    3.907870    4.375863    -22.581869    -30.149685    12.789637    -32.395847    7.345005    -24.906574    -66.779320    -6.085518    -20.893005    9.267154    -3.955404    5.873406    -9.900196    24.486048    25.202820    43.894016    -17.814253    -22.171356    54.089653    -11.073183    -13.998405    5.994990    2.319240    0.079415    -9.240445    -6.339993    1.315953    -8.146956    -6.931304    -10.166917    9.504107    0.000000    0.000000    0.000000    -3.684504    0.225999    1.454735    3.313981    9.076468    -0.810051    -3.603861    -15.765263    -7.171710    0.000000    0.000000    0.000000    
0.810463    98.473396    27.056444    1.389882    0.866634    97.541420    -1.076906    -6.339477    1.099883    -0.679803    4.572517    1.186637    1.942496    0.789751    2.204296    1.925283    3.138574    2.242417    3.956445    4.435235    -22.424482    -30.414146    13.221045    -32.095394    7.183621    -24.870619    -66.525497    -5.639632    -20.937471    9.139188    -3.840838    5.800862    -9.944872    24.595884    25.666346    43.657749    -17.583349    -21.817577    54.065159    -11.163523    -13.765997    6.108049    2.387948    -0.029704    -9.212340    -6.371778    1.165278    -7.961091    -6.943012    -10.219932    9.381104    0.000000    0.000000    0.000000    -3.725163    -0.042102    1.453871    3.460106    9.196041    -0.442600    -3.894170    -15.931112    -7.495082    0.000000    0.000000    0.000000    
0.892644    98.500526    27.050358    1.604244    0.869289    97.253670    -1.062141    -6.106219    1.149613    -0.593751    4.627383    1.230300    1.926512    0.797927    2.291913    1.897514    3.166127    2.332325    3.893637    4.569807    -22.242413    -30.603621    13.697522    -31.750872    6.981126    -24.851465    -66.247948    -5.146199    -21.026146    9.091016    -3.825249    5.948187    -9.882425    24.852030    26.059940    43.407791    -17.169735    -21.508869    54.235992    -11.201573    -13.627443    6.137677    2.474938    0.387150    -9.139538    -6.337482    0.918856    -8.034861    -7.251171    -10.155876    9.385269    0.000000    0.000000    0.000000    -3.697252    0.208426    1.394642    3.411277    9.122879    -0.454592    -3.798640    -15.919525    -7.240472    0.000000    0.000000    0.000000    
